<svg id="svg" xmlns="http://www.w3.org/2000/svg" xmlns:xlink="http://www.w3.org/1999/xlink" width="400" height="400" viewBox="0, 0, 400,400"><g id="svgg"><path id="path0" d="M182.540 86.161 C 130.652 92.449,90.349 132.275,82.559 184.961 C 81.348 193.152,81.609 210.619,83.056 218.164 C 83.238 219.116,80.576 216.645,68.886 205.014 C 54.793 190.991,54.444 190.678,52.204 190.033 C 43.401 187.496,35.777 196.499,39.628 204.883 C 40.659 207.127,118.525 284.940,124.414 289.611 C 186.654 338.982,277.505 313.167,304.378 238.477 C 310.487 221.500,312.615 198.237,309.524 182.227 C 309.340 181.275,312.008 183.748,323.692 195.362 C 339.357 210.933,339.067 210.709,343.555 210.709 C 351.094 210.710,356.340 202.247,352.891 195.648 C 352.052 194.043,277.114 118.604,271.680 113.894 C 246.867 92.389,214.428 82.296,182.540 86.161 M236.523 87.499 C 236.953 87.685,239.678 88.828,242.578 90.040 C 252.293 94.099,262.230 100.051,271.289 107.238 C 279.174 113.493,355.398 190.178,357.034 193.502 C 358.798 197.085,359.099 201.358,357.836 204.883 C 356.638 208.224,356.622 208.161,358.984 209.513 C 367.418 214.339,377.334 205.573,373.817 196.401 C 372.850 193.879,297.459 117.786,289.709 111.511 C 275.535 100.032,259.194 92.077,241.602 88.090 C 239.238 87.555,236.953 87.127,236.523 87.139 L 235.742 87.162 236.523 87.499 M256.673 87.261 C 256.763 87.345,258.770 88.165,261.133 89.085 C 271.799 93.235,283.452 100.170,293.122 108.121 C 297.860 112.017,375.064 189.104,376.729 191.602 C 379.486 195.736,380.162 201.174,378.478 205.675 L 377.625 207.955 378.754 208.869 C 386.956 215.507,398.870 205.509,394.343 195.786 C 393.242 193.420,317.789 117.496,311.091 112.014 C 296.302 99.909,279.152 91.590,261.448 87.932 C 257.546 87.126,256.348 86.957,256.673 87.261 M203.711 107.040 C 279.391 114.068,316.087 202.138,267.652 260.498 C 219.098 319.001,123.619 296.625,105.447 222.484 C 91.615 166.051,130.666 112.568,189.844 106.897 C 192.965 106.598,199.693 106.667,203.711 107.040 M177.344 113.471 C 128.656 124.198,98.205 173.586,110.384 222.070 C 119.015 256.432,147.118 282.066,182.715 288.048 C 184.749 288.390,184.185 287.768,181.543 286.755 C 168.676 281.819,153.916 270.757,144.443 258.950 C 105.543 210.469,123.602 138.208,180.664 114.013 C 184.923 112.208,183.863 112.034,177.344 113.471 M199.609 113.258 C 168.187 119.915,143.024 142.198,133.064 172.191 C 116.088 223.307,147.708 277.240,200.667 287.496 C 204.922 288.320,205.612 288.250,203.076 287.249 C 135.839 260.731,123.869 169.000,181.943 125.297 C 188.056 120.696,192.401 118.213,203.125 113.190 C 204.944 112.338,203.853 112.359,199.609 113.258 M65.332 190.806 C 64.204 191.331,63.281 191.991,63.281 192.271 C 63.281 192.803,76.150 205.859,76.673 205.859 C 76.837 205.859,76.923 202.739,76.864 198.926 L 76.758 191.992 74.637 190.918 C 71.781 189.471,68.289 189.429,65.332 190.806 M315.505 202.989 C 314.169 251.314,284.448 294.169,240.234 311.523 C 236.495 312.991,234.843 313.925,236.719 313.512 C 237.256 313.394,239.757 312.846,242.276 312.295 C 288.693 302.142,324.457 262.729,330.677 214.874 L 331.307 210.021 323.524 202.237 L 315.741 194.454 315.505 202.989 M349.219 214.556 C 346.552 215.796,341.513 215.951,338.490 214.884 C 337.208 214.432,336.049 214.063,335.913 214.063 C 335.777 214.063,335.452 215.601,335.191 217.480 C 329.408 259.198,299.237 297.173,260.156 311.926 C 256.254 313.399,256.012 313.702,259.237 313.079 C 302.917 304.638,337.885 271.618,348.832 228.478 C 349.759 224.825,351.562 215.240,351.562 213.965 C 351.563 213.544,351.194 213.637,349.219 214.556 " stroke="none" fill="#000000" fill-rule="evenodd"></path></g></svg>